solid 
 facet normal  1.034755e-01  4.465582e-11  9.946320e-01
   outer loop
     vertex  2.320000e+02 -3.000000e+00  8.600000e+01
     vertex  2.320000e+02  3.000000e+00  8.600000e+01
     vertex -2.390000e+02  3.000000e+00  1.350000e+02
   endloop
 endfacet
 facet normal  1.034755e-01  4.465572e-11  9.946320e-01
   outer loop
     vertex  2.320000e+02 -3.000000e+00  8.600000e+01
     vertex -2.390000e+02  3.000000e+00  1.350000e+02
     vertex -2.390000e+02 -3.000000e+00  1.350000e+02
   endloop
 endfacet
 facet normal -8.485781e-17  1.000000e+00 -4.489614e-11
   outer loop
     vertex  2.320000e+02  3.000000e+00  8.600000e+01
     vertex  2.320000e+02  3.000000e+00  6.000000e+00
     vertex -2.390000e+02  3.000000e+00  6.000000e+00
   endloop
 endfacet
 facet normal -1.461806e-19  1.000000e+00 -4.489664e-11
   outer loop
     vertex  2.320000e+02  3.000000e+00  8.600000e+01
     vertex -2.390000e+02  3.000000e+00  6.000000e+00
     vertex -2.390000e+02  3.000000e+00  1.350000e+02
   endloop
 endfacet
 facet normal  1.000000e+00  0.000000e+00  0.000000e+00
   outer loop
     vertex  2.320000e+02 -3.000000e+00  8.600000e+01
     vertex  2.320000e+02 -3.000000e+00  6.000000e+00
     vertex  2.320000e+02  3.000000e+00  6.000000e+00
   endloop
 endfacet
 facet normal  1.000000e+00  0.000000e+00  0.000000e+00
   outer loop
     vertex  2.320000e+02 -3.000000e+00  8.600000e+01
     vertex  2.320000e+02  3.000000e+00  6.000000e+00
     vertex  2.320000e+02  3.000000e+00  8.600000e+01
   endloop
 endfacet
 facet normal  8.485781e-17 -1.000000e+00  4.489614e-11
   outer loop
     vertex -2.390000e+02 -3.000000e+00  6.000000e+00
     vertex  2.320000e+02 -3.000000e+00  6.000000e+00
     vertex  2.320000e+02 -3.000000e+00  8.600000e+01
   endloop
 endfacet
 facet normal  1.461806e-19 -1.000000e+00  4.489664e-11
   outer loop
     vertex -2.390000e+02 -3.000000e+00  1.350000e+02
     vertex -2.390000e+02 -3.000000e+00  6.000000e+00
     vertex  2.320000e+02 -3.000000e+00  8.600000e+01
   endloop
 endfacet
 facet normal  0.000000e+00 -4.489664e-11 -1.000000e+00
   outer loop
     vertex  2.390000e+02  9.700000e+01 -4.354974e-09
     vertex  2.390000e+02 -9.700000e+01  4.354974e-09
     vertex -2.390000e+02 -9.700000e+01  4.354974e-09
   endloop
 endfacet
 facet normal -0.000000e+00 -4.489664e-11 -1.000000e+00
   outer loop
     vertex  2.390000e+02  9.700000e+01 -4.354974e-09
     vertex -2.390000e+02 -9.700000e+01  4.354974e-09
     vertex -2.390000e+02  9.700000e+01 -4.354974e-09
   endloop
 endfacet
 facet normal  0.000000e+00 -1.000000e+00  4.489683e-11
   outer loop
     vertex -2.390000e+02 -9.700000e+01  6.000000e+00
     vertex  2.390000e+02 -9.700000e+01  4.354974e-09
     vertex  2.390000e+02 -9.700000e+01  6.000000e+00
   endloop
 endfacet
 facet normal  0.000000e+00 -1.000000e+00  4.489683e-11
   outer loop
     vertex -2.390000e+02 -9.700000e+01  6.000000e+00
     vertex -2.390000e+02 -9.700000e+01  4.354974e-09
     vertex  2.390000e+02 -9.700000e+01  4.354974e-09
   endloop
 endfacet
 facet normal -1.000000e+00 -0.000000e+00  0.000000e+00
   outer loop
     vertex -2.390000e+02 -3.000000e+00  6.000000e+00
     vertex -2.390000e+02 -9.700000e+01  4.354974e-09
     vertex -2.390000e+02 -9.700000e+01  6.000000e+00
   endloop
 endfacet
 facet normal -1.000000e+00 -0.000000e+00  0.000000e+00
   outer loop
     vertex -2.390000e+02  9.700000e+01  6.000000e+00
     vertex -2.390000e+02  9.700000e+01 -4.354974e-09
     vertex -2.390000e+02  3.000000e+00  6.000000e+00
   endloop
 endfacet
 facet normal -1.000000e+00 -0.000000e+00  0.000000e+00
   outer loop
     vertex -2.390000e+02  3.000000e+00  1.350000e+02
     vertex -2.390000e+02 -3.000000e+00  6.000000e+00
     vertex -2.390000e+02 -3.000000e+00  1.350000e+02
   endloop
 endfacet
 facet normal -1.000000e+00  0.000000e+00  0.000000e+00
   outer loop
     vertex -2.390000e+02  3.000000e+00  1.350000e+02
     vertex -2.390000e+02  3.000000e+00  6.000000e+00
     vertex -2.390000e+02 -3.000000e+00  6.000000e+00
   endloop
 endfacet
 facet normal -1.000000e+00  0.000000e+00  0.000000e+00
   outer loop
     vertex -2.390000e+02 -9.700000e+01  4.354974e-09
     vertex -2.390000e+02  3.000000e+00  6.000000e+00
     vertex -2.390000e+02  9.700000e+01 -4.354974e-09
   endloop
 endfacet
 facet normal -1.000000e+00  0.000000e+00  0.000000e+00
   outer loop
     vertex -2.390000e+02 -9.700000e+01  4.354974e-09
     vertex -2.390000e+02 -3.000000e+00  6.000000e+00
     vertex -2.390000e+02  3.000000e+00  6.000000e+00
   endloop
 endfacet
 facet normal  0.000000e+00  1.000000e+00 -4.489683e-11
   outer loop
     vertex  2.390000e+02  9.700000e+01  6.000000e+00
     vertex -2.390000e+02  9.700000e+01 -4.354974e-09
     vertex -2.390000e+02  9.700000e+01  6.000000e+00
   endloop
 endfacet
 facet normal  0.000000e+00  1.000000e+00 -4.489683e-11
   outer loop
     vertex  2.390000e+02  9.700000e+01  6.000000e+00
     vertex  2.390000e+02  9.700000e+01 -4.354974e-09
     vertex -2.390000e+02  9.700000e+01 -4.354974e-09
   endloop
 endfacet
 facet normal  1.000000e+00  0.000000e+00  0.000000e+00
   outer loop
     vertex  2.390000e+02 -9.700000e+01  6.000000e+00
     vertex  2.390000e+02  9.700000e+01 -4.354974e-09
     vertex  2.390000e+02  9.700000e+01  6.000000e+00
   endloop
 endfacet
 facet normal  1.000000e+00  0.000000e+00  0.000000e+00
   outer loop
     vertex  2.390000e+02 -9.700000e+01  6.000000e+00
     vertex  2.390000e+02 -9.700000e+01  4.354974e-09
     vertex  2.390000e+02  9.700000e+01 -4.354974e-09
   endloop
 endfacet
 facet normal  0.000000e+00  4.489664e-11  1.000000e+00
   outer loop
     vertex  2.320000e+02 -3.000000e+00  6.000000e+00
     vertex -2.390000e+02 -9.700000e+01  6.000000e+00
     vertex  2.390000e+02 -9.700000e+01  6.000000e+00
   endloop
 endfacet
 facet normal -3.809831e-27  4.489664e-11  1.000000e+00
   outer loop
     vertex  2.320000e+02 -3.000000e+00  6.000000e+00
     vertex -2.390000e+02 -3.000000e+00  6.000000e+00
     vertex -2.390000e+02 -9.700000e+01  6.000000e+00
   endloop
 endfacet
 facet normal -3.809831e-27  4.489664e-11  1.000000e+00
   outer loop
     vertex  2.320000e+02  3.000000e+00  6.000000e+00
     vertex -2.390000e+02  9.700000e+01  6.000000e+00
     vertex -2.390000e+02  3.000000e+00  6.000000e+00
   endloop
 endfacet
 facet normal  0.000000e+00  4.489664e-11  1.000000e+00
   outer loop
     vertex  2.390000e+02  9.700000e+01  6.000000e+00
     vertex -2.390000e+02  9.700000e+01  6.000000e+00
     vertex  2.320000e+02  3.000000e+00  6.000000e+00
   endloop
 endfacet
 facet normal -4.709046e-17  4.489664e-11  1.000000e+00
   outer loop
     vertex  2.390000e+02  9.700000e+01  6.000000e+00
     vertex  2.320000e+02 -3.000000e+00  6.000000e+00
     vertex  2.390000e+02 -9.700000e+01  6.000000e+00
   endloop
 endfacet
 facet normal  1.522592e-15  4.489653e-11  1.000000e+00
   outer loop
     vertex  2.390000e+02  9.700000e+01  6.000000e+00
     vertex  2.320000e+02  3.000000e+00  6.000000e+00
     vertex  2.320000e+02 -3.000000e+00  6.000000e+00
   endloop
 endfacet
endsolid
